<svg width="190" height="6" viewBox="0 0 190 6" fill="none" xmlns="http://www.w3.org/2000/svg">
<path d="M187 6C188.657 6 190 4.65685 190 3C190 1.34315 188.657 0 187 0C185.343 0 184 1.34315 184 3C184 4.65685 185.343 6 187 6Z" fill="#C2B560"/>
<g opacity="0.996">
<path d="M162 3H187H162Z" fill="#C2B560"/>
<path d="M162 3H187" stroke="#C2B560" stroke-width="0.999999"/>
</g>
<path d="M180.975 3.01379C180.975 1.87456 181.206 0.73534 179.252 0.165728C175.974 -0.670889 13.7886 1.87456 0 3.01379C13.7886 4.15301 175.926 6.60629 179.252 5.86185C181.341 5.29223 180.975 4.15301 180.975 3.01379Z" fill="#C2B560"/>
</svg>
