<?xml version="1.0" encoding="UTF-8" standalone="no"?>
<svg
   xmlns:dc="http://purl.org/dc/elements/1.1/"
   xmlns:cc="http://creativecommons.org/ns#"
   xmlns:rdf="http://www.w3.org/1999/02/22-rdf-syntax-ns#"
   xmlns:svg="http://www.w3.org/2000/svg"
   xmlns="http://www.w3.org/2000/svg"
   xmlns:sodipodi="http://sodipodi.sourceforge.net/DTD/sodipodi-0.dtd"
   xmlns:inkscape="http://www.inkscape.org/namespaces/inkscape"
   inkscape:version="1.0beta2 (25cba93, 2020-02-08)"
   sodipodi:docname="frame.svg"
   id="svg1319"
   version="1.1"
   viewBox="0 0 104.77501 138.11249"
   height="522"
   width="396">
  <defs
     id="defs1313" />
  <sodipodi:namedview
     inkscape:window-maximized="1"
     inkscape:window-y="-8"
     inkscape:window-x="-8"
     inkscape:window-height="1417"
     inkscape:window-width="2560"
     lock-margins="true"
     units="px"
     fit-margin-bottom="0"
     fit-margin-right="0"
     fit-margin-left="0"
     fit-margin-top="0"
     inkscape:guide-bbox="true"
     showguides="true"
     showgrid="true"
     inkscape:document-rotation="0"
     inkscape:current-layer="layer1"
     inkscape:document-units="px"
     inkscape:cy="285.94331"
     inkscape:cx="103.19674"
     inkscape:zoom="1.979899"
     inkscape:pageshadow="2"
     inkscape:pageopacity="0.0"
     borderopacity="1.0"
     bordercolor="#666666"
     pagecolor="#ffffff"
     id="base">
    <sodipodi:guide
       inkscape:color="rgb(0,0,255)"
       inkscape:locked="false"
       inkscape:label=""
       id="guide1884"
       orientation="-1,0"
       position="52.387499,124.42975" />
    <sodipodi:guide
       inkscape:color="rgb(0,0,255)"
       inkscape:locked="false"
       inkscape:label=""
       id="guide1886"
       orientation="0,1"
       position="52.387499,69.056251" />
    <sodipodi:guide
       inkscape:color="rgb(0,0,255)"
       inkscape:locked="false"
       inkscape:label=""
       id="guide1894"
       orientation="0,1"
       position="-5.2547327,101.6" />
    <sodipodi:guide
       inkscape:color="rgb(0,0,255)"
       inkscape:locked="false"
       inkscape:label=""
       id="guide1896"
       orientation="0,1"
       position="-5.2547327,36.777084" />
    <sodipodi:guide
       inkscape:color="rgb(0,0,255)"
       inkscape:locked="false"
       inkscape:label=""
       id="guide1898"
       orientation="-1,0"
       position="28.310418,124.42975" />
    <sodipodi:guide
       inkscape:color="rgb(0,0,255)"
       inkscape:locked="false"
       inkscape:label=""
       id="guide1900"
       orientation="-1,0"
       position="76.464585,124.42975" />
    <inkscape:grid
       originy="-12.699999"
       originx="-12.7"
       enabled="true"
       visible="true"
       snapvisiblegridlinesonly="true"
       dotted="false"
       spacingy="0.52916668"
       spacingx="0.52916668"
       empspacing="8"
       id="grid1904"
       type="xygrid" />
  </sodipodi:namedview>
  <metadata
     id="metadata1316">
    <rdf:RDF>
      <cc:Work
         rdf:about="">
        <dc:format>image/svg+xml</dc:format>
        <dc:type
           rdf:resource="http://purl.org/dc/dcmitype/StillImage" />
        <dc:title></dc:title>
      </cc:Work>
    </rdf:RDF>
  </metadata>
  <g
     transform="translate(-32.808334,-43.958629)"
     id="layer1"
     inkscape:groupmode="layer"
     inkscape:label="Layer 1">
    <rect
       y="48.191963"
       x="37.041668"
       height="129.64583"
       width="96.308334"
       id="rect1882"
       style="fill:#dcdcdc;fill-opacity:0.14;stroke:none;stroke-width:0.420026;stroke-linejoin:round" />
    <path
       sodipodi:nodetypes="cc"
       inkscape:connector-curvature="0"
       id="path1890"
       d="M 61.118752,80.471128 109.27292,145.29405"
       style="fill:none;stroke:#000000;stroke-width:0.264685px;stroke-linecap:butt;stroke-linejoin:miter;stroke-opacity:0.25" />
    <path
       sodipodi:nodetypes="cc"
       inkscape:connector-curvature="0"
       id="path1892"
       d="M 61.118752,145.29405 109.27292,80.471128"
       style="fill:none;stroke:#000000;stroke-width:0.264685px;stroke-linecap:butt;stroke-linejoin:miter;stroke-opacity:0.25" />
    <path
       sodipodi:nodetypes="sssscscssscscssssssscscssscscssssccccccccc"
       inkscape:connector-curvature="0"
       transform="matrix(0.26458334,0,0,0.26458334,20.108334,31.258629)"
       d="m 246,48 c -13.99999,0 -29.73197,5.288661 -46,8 -31.81025,5.301709 -31.99999,-4 -45,-4 -23,0 -27,8 -75,8 -8.000001,0 -15.976713,0.01735 -24,-4 3.999999,8.000001 4,23.999998 4,40 0,36 -8,60 -8,92 -0.358273,25.49815 4,20 4,52 0,28.00001 -8,36 -8,69 0,33.00004 8,40.99998 8,69 0,31.99997 -4.358261,26.50183 -4,52 0,32.00001 8,56 8,92 0,15.99999 -10e-7,32.00003 -4,40 8.023287,-4.01888 15.999999,-4 24,-4 48,0 52,8 75,8 13.00001,0 13.18975,-9.30169 45,-4 16.26803,2.71136 32.00001,8 46,8 13.99999,0 29.73197,-5.28864 46,-8 31.81024,-5.30169 31.99998,4 45,4 22.99997,0 27,-8 75,-8 7.99997,0 15.97671,-0.0173 24,4 -4.00003,-7.99997 -4,-24.00001 -4,-40 0,-36 8,-59.99999 8,-92 0.35826,-25.49817 -4,-20.00003 -4,-52 0,-28.00002 8,-35.99996 8,-69 0,-33 -8,-40.99999 -8,-69 0,-32 4.35826,-26.50185 4,-52 0,-32 -8,-56 -8,-92 0,-16.000002 -3e-5,-31.999999 4,-40 -8.02329,4.017347 -16.00003,4 -24,4 -48,0 -52.00003,-8 -75,-8 -13.00002,0 -13.18974,9.301709 -45,4 -16.26803,-2.711339 -32.00001,-8 -46,-8 z M 64,64 H 246 428 V 309 554 H 246 64 V 309 Z"
       style="fill:#000000;fill-opacity:0.5;stroke:none;stroke-width:0.999999px;stroke-linecap:butt;stroke-linejoin:miter;stroke-opacity:1"
       id="path1906" />
    <path
       sodipodi:nodetypes="sccccsscssccccscscsccsscssccccscs"
       inkscape:connector-curvature="0"
       transform="matrix(0.26458334,0,0,0.26458334,20.108334,31.258629)"
       d="m 431.91602,239.99609 c 0.0839,-23.99694 4.08446,-35.99515 4.64648,-53.92187 -0.56202,-28.07328 -6.57478,-66.0631 -6.56836,-90.095704 0.004,-19.978231 1.70718,-34.684072 2.18359,-36.113282 -5.95789,1.994979 -13.96972,2 -20,2 -26.78861,0.33944 -60,-6 -75,-6 -9,0 -17.00001,4.000004 -27,4 -21.99999,4e-6 -43.17774,-7.865232 -64.17773,-7.86523 -20.99999,2e-6 -42.17773,7.865234 -64.17773,7.86523 -10,4e-6 -18,-4 -27,-4 -15,0 -48.2114,6.33944 -75.000004,6 -6.030267,0 -14.042112,-0.005 -20,-2 0.476402,1.42921 2.178302,16.135051 2.183593,36.113282 0.0064,24.032604 -6.006347,62.022424 -6.568359,90.095704 0.562012,17.92672 4.562541,29.92493 4.646484,53.92187 C 60.193235,271.22277 52,280.49998 52,308.99999 c 0,28.50002 8.193235,37.77723 8.083984,69.00392 -0.08394,23.99693 -4.084472,35.99516 -4.646484,53.92187 0.562012,28.07327 6.574785,66.06309 6.568359,90.0957 -0.0053,19.97825 -1.707191,34.68406 -2.183593,36.11329 5.957888,-1.99499 13.969733,-2 20,-2 26.788604,-0.33941 60.000004,6 75.000004,6 9,0 17,-4 27,-4 22,0 43.17773,7.86523 64.17772,7.86523 20.99999,10e-6 42.17775,-7.86523 64.17774,-7.86523 9.99999,0 18,4 27,4 15,0 48.21139,-6.33941 75,-6 6.03028,0 14.04211,0.005 20,2 -0.47641,-1.42923 -2.17981,-16.13504 -2.18359,-36.11329 -0.006,-24.03261 6.00634,-62.02243 6.56836,-90.0957 -0.56202,-17.92671 -4.56258,-29.92494 -4.64648,-53.92187 C 431.80675,346.77722 440,338.50001 440,308.99999 c 0,-29.50001 -8.19325,-37.77722 -8.08398,-69.0039 z"
       style="opacity:1;mix-blend-mode:normal;fill:none;fill-opacity:0.5;stroke:#000000;stroke-width:1;stroke-linecap:butt;stroke-linejoin:miter;stroke-miterlimit:4;stroke-dasharray:none;stroke-opacity:0.5"
       id="path1914" />
  </g>
</svg>
