<?xml version="1.0" encoding="UTF-8" standalone="no"?>
<svg
   xmlns:dc="http://purl.org/dc/elements/1.1/"
   xmlns:cc="http://creativecommons.org/ns#"
   xmlns:rdf="http://www.w3.org/1999/02/22-rdf-syntax-ns#"
   xmlns:svg="http://www.w3.org/2000/svg"
   xmlns="http://www.w3.org/2000/svg"
   xmlns:sodipodi="http://sodipodi.sourceforge.net/DTD/sodipodi-0.dtd"
   xmlns:inkscape="http://www.inkscape.org/namespaces/inkscape"
   inkscape:export-ydpi="13.96"
   inkscape:export-xdpi="13.96"
   inkscape:export-filename="C:\Users\Jonathan Bernard\projects\jdb-labs\upci-wall-of-honor\webapp\src\assets\img\logo-lores-32.png"
   version="1.1"
   id="svg10"
   width="220"
   height="220"
   viewBox="0 0 220 220"
   sodipodi:docname="logo-lores.svg"
   inkscape:version="1.0beta2 (25cba93, 2020-02-08)">
  <metadata
     id="metadata16">
    <rdf:RDF>
      <cc:Work
         rdf:about="">
        <dc:format>image/svg+xml</dc:format>
        <dc:type
           rdf:resource="http://purl.org/dc/dcmitype/StillImage" />
        <dc:title></dc:title>
      </cc:Work>
    </rdf:RDF>
  </metadata>
  <defs
     id="defs14" />
  <sodipodi:namedview
     fit-margin-bottom="0"
     fit-margin-right="0"
     fit-margin-left="0"
     fit-margin-top="0"
     inkscape:document-rotation="0"
     pagecolor="#ffffff"
     bordercolor="#666666"
     borderopacity="1"
     objecttolerance="10"
     gridtolerance="10"
     guidetolerance="10"
     inkscape:pageopacity="0"
     inkscape:pageshadow="2"
     inkscape:window-width="2560"
     inkscape:window-height="1417"
     id="namedview12"
     showgrid="false"
     showguides="true"
     inkscape:guide-bbox="true"
     inkscape:zoom="2"
     inkscape:cx="62.459735"
     inkscape:cy="104.96811"
     inkscape:window-x="-8"
     inkscape:window-y="-8"
     inkscape:window-maximized="1"
     inkscape:current-layer="g18">
    <sodipodi:guide
       position="101.91221,65.254966"
       orientation="1,0"
       id="guide977" />
  </sodipodi:namedview>
  <g
     transform="translate(-28.815476,-1.8777946)"
     inkscape:groupmode="layer"
     inkscape:label="Image"
     id="g18"
     style="display:inline">
    <ellipse
       style="fill:none;stroke:#000000;stroke-width:2"
       id="path22"
       ry="4.7484241"
       rx="8.5963497"
       cy="39.551338"
       cx="23.688858"
       transform="rotate(-45)" />
    <rect
       style="fill:#000000;fill-opacity:1;stroke:#000000;stroke-width:2"
       id="rect26"
       width="32.474686"
       height="10.155463"
       x="43.739441"
       y="-29.739464"
       transform="rotate(47)" />
    <path
       style="fill:none;stroke:#000000;stroke-width:2"
       id="path30"
       sodipodi:type="arc"
       sodipodi:cx="-103.19328"
       sodipodi:cy="15.71771"
       sodipodi:rx="4.1690226"
       sodipodi:ry="4.1690226"
       sodipodi:start="5.4556027"
       sodipodi:end="5.0179164"
       sodipodi:arc-type="arc"
       sodipodi:open="true"
       transform="rotate(-162)"
       d="m -100.37228,12.648067 a 4.1690226,4.1690226 0 0 1 0.538344,5.538557 4.1690226,4.1690226 0 0 1 -5.446644,1.139955 4.1690226,4.1690226 0 0 1 -1.72793,-5.289583 4.1690226,4.1690226 0 0 1 5.06925,-2.295235" />
    <path
       transform="rotate(18)"
       sodipodi:open="true"
       sodipodi:arc-type="arc"
       sodipodi:end="4.9925294"
       sodipodi:start="5.535163"
       sodipodi:ry="4.1690226"
       sodipodi:rx="4.1690226"
       sodipodi:cy="53.079399"
       sodipodi:cx="64.100853"
       sodipodi:type="arc"
       id="path34"
       style="fill:none;stroke:#000000;stroke-width:2"
       d="m 67.156895,50.24367 a 4.1690226,4.1690226 0 0 1 0.166941,5.480182 4.1690226,4.1690226 0 0 1 -5.407255,0.906562 4.1690226,4.1690226 0 0 1 -1.629525,-5.23497 4.1690226,4.1690226 0 0 1 4.966493,-2.322545" />
    <path
       style="fill:none;stroke:#000000;stroke-width:2;stroke-linecap:butt;stroke-linejoin:miter;stroke-miterlimit:4;stroke-dasharray:none;stroke-opacity:1"
       d="M 45.832825,66.544703 66.300741,42.383228"
       id="path36"
       inkscape:connector-curvature="0" />
    <path
       style="fill:none;stroke:#000000;stroke-width:2;stroke-linecap:butt;stroke-linejoin:miter;stroke-miterlimit:4;stroke-dasharray:none;stroke-opacity:1"
       d="M 73.727977,35.457218 99.040859,17.858998"
       id="path861"
       inkscape:connector-curvature="0" />
    <path
       style="fill:none;stroke:#000000;stroke-width:2;stroke-linecap:butt;stroke-linejoin:miter;stroke-miterlimit:4;stroke-dasharray:none;stroke-opacity:1"
       d="M 48.729942,69.441821 72.118866,51.917793 105.68303,89.509658"
       id="path863"
       inkscape:connector-curvature="0" />
    <path
       style="fill:none;stroke:#000000;stroke-width:2;stroke-linecap:butt;stroke-linejoin:miter;stroke-miterlimit:4;stroke-dasharray:none;stroke-opacity:1"
       d="M 101.58467,20.685454 82.223446,42.943795 116.3529,80.111692"
       id="path865"
       inkscape:connector-curvature="0" />
    <path
       style="fill:none;stroke:#000000;stroke-width:1px;stroke-linecap:butt;stroke-linejoin:miter;stroke-opacity:1"
       d="m 72.118866,51.917793 10.10458,-8.973998"
       id="path869"
       inkscape:connector-curvature="0" />
    <path
       style="fill:none;stroke:#000000;stroke-width:2;stroke-linecap:butt;stroke-linejoin:miter;stroke-miterlimit:4;stroke-dasharray:none;stroke-opacity:1"
       d="m 160.88158,149.72486 36.63436,37.64265 c 8.69294,8.52997 17.27497,16.00632 25.54323,20.5018 -3.94586,-8.59143 -9.50402,-17.56675 -17.92507,-27.2237 l -33.72154,-39.88329"
       id="path873"
       inkscape:connector-curvature="0"
       sodipodi:nodetypes="ccccc" />
    <ellipse
       transform="matrix(-0.70710678,-0.70710678,-0.70710678,0.70710678,0,0)"
       cx="-173.12862"
       cy="-156.26064"
       rx="8.5963497"
       ry="4.7484241"
       id="ellipse892"
       style="fill:none;stroke:#000000;stroke-width:2" />
    <rect
       transform="matrix(-0.68199836,0.7313537,0.7313537,0.68199836,0,0)"
       y="173.79185"
       x="-145.08443"
       height="10.155463"
       width="32.474686"
       id="rect894"
       style="fill:#000000;fill-opacity:1;stroke:#000000;stroke-width:2" />
    <path
       transform="matrix(0.95105652,-0.30901699,-0.30901699,-0.95105652,0,0)"
       sodipodi:open="true"
       sodipodi:arc-type="arc"
       sodipodi:end="5.0234828"
       sodipodi:start="5.4556027"
       sodipodi:ry="4.1690226"
       sodipodi:rx="4.1690226"
       sodipodi:cy="-70.751167"
       sodipodi:cx="160.62975"
       sodipodi:type="arc"
       id="path896"
       style="fill:none;stroke:#000000;stroke-width:2"
       d="m 163.45075,-73.820809 a 4.1690226,4.1690226 0 0 1 0.5349,5.543229 4.1690226,4.1690226 0 0 1 -5.45324,1.129459 4.1690226,4.1690226 0 0 1 -1.71084,-5.299673 4.1690226,4.1690226 0 0 1 5.08431,-2.27228" />
    <path
       style="fill:none;stroke:#000000;stroke-width:2"
       id="path898"
       sodipodi:type="arc"
       sodipodi:cx="-199.72217"
       sodipodi:cy="139.54828"
       sodipodi:rx="4.1690226"
       sodipodi:ry="4.1690226"
       sodipodi:start="5.535163"
       sodipodi:end="4.9925294"
       sodipodi:arc-type="arc"
       sodipodi:open="true"
       transform="matrix(-0.95105652,0.30901699,0.30901699,0.95105652,0,0)"
       d="m -196.66613,136.71255 a 4.1690226,4.1690226 0 0 1 0.16695,5.48018 4.1690226,4.1690226 0 0 1 -5.40726,0.90656 4.1690226,4.1690226 0 0 1 -1.62952,-5.23497 4.1690226,4.1690226 0 0 1 4.96649,-2.32254" />
    <path
       inkscape:connector-curvature="0"
       id="path900"
       d="M 231.79813,67.2557 211.33021,43.094225"
       style="fill:none;stroke:#000000;stroke-width:2;stroke-linecap:butt;stroke-linejoin:miter;stroke-miterlimit:4;stroke-dasharray:none;stroke-opacity:1" />
    <path
       inkscape:connector-curvature="0"
       id="path902"
       d="M 203.90298,36.168215 178.5901,18.569995"
       style="fill:none;stroke:#000000;stroke-width:2;stroke-linecap:butt;stroke-linejoin:miter;stroke-miterlimit:4;stroke-dasharray:none;stroke-opacity:1" />
    <path
       inkscape:connector-curvature="0"
       id="path904"
       d="M 228.90101,70.152818 205.51209,52.62879 171.94792,90.220655"
       style="fill:none;stroke:#000000;stroke-width:2;stroke-linecap:butt;stroke-linejoin:miter;stroke-miterlimit:4;stroke-dasharray:none;stroke-opacity:1" />
    <path
       inkscape:connector-curvature="0"
       id="path906"
       d="m 176.04628,21.396451 19.36123,22.258341 -34.12946,37.167897"
       style="fill:none;stroke:#000000;stroke-width:2;stroke-linecap:butt;stroke-linejoin:miter;stroke-miterlimit:4;stroke-dasharray:none;stroke-opacity:1" />
    <path
       inkscape:connector-curvature="0"
       id="path910"
       d="M 205.51209,52.62879 195.40751,43.654792"
       style="fill:none;stroke:#000000;stroke-width:1px;stroke-linecap:butt;stroke-linejoin:miter;stroke-opacity:1" />
    <path
       sodipodi:nodetypes="ccccc"
       inkscape:connector-curvature="0"
       id="path914"
       d="m 116.74937,150.43586 -36.634356,37.64265 c -8.692939,8.52997 -17.274969,16.00632 -25.54323,20.5018 3.945861,-8.59143 9.504021,-17.56675 17.92507,-27.2237 l 33.721536,-39.88329"
       style="fill:none;stroke:#000000;stroke-width:2;stroke-linecap:butt;stroke-linejoin:miter;stroke-miterlimit:4;stroke-dasharray:none;stroke-opacity:1" />
    <path
       style="fill:none;stroke:#000000;stroke-width:4;stroke-miterlimit:4;stroke-dasharray:none"
       id="path920"
       sodipodi:type="arc"
       sodipodi:cx="139.1337"
       sodipodi:cy="115.42472"
       sodipodi:rx="41.219845"
       sodipodi:ry="41.219845"
       sodipodi:start="5.4556025"
       sodipodi:end="5.4552127"
       sodipodi:open="true"
       sodipodi:arc-type="arc"
       d="m 167.02542,85.074635 a 41.219845,41.219845 0 0 1 2.46108,58.238845 41.219845,41.219845 0 0 1 -58.2386,2.46676 41.219845,41.219845 0 0 1 -2.47244,-58.238363 41.219845,41.219845 0 0 1 58.23812,-2.478112" />
    <path
       style="fill:none;stroke:#000000;stroke-width:4;stroke-linecap:butt;stroke-linejoin:miter;stroke-miterlimit:4;stroke-dasharray:none;stroke-opacity:1"
       d="M 138.67988,74.302226 V 156.80263"
       id="path924"
       inkscape:connector-curvature="0" />
    <path
       inkscape:connector-curvature="0"
       id="path926"
       d="M 179.93008,115.55243 H 97.429681"
       style="fill:none;stroke:#000000;stroke-width:4;stroke-linecap:butt;stroke-linejoin:miter;stroke-miterlimit:4;stroke-dasharray:none;stroke-opacity:1" />
    <path
       style="fill:none;stroke:#000000;stroke-width:4;stroke-linecap:butt;stroke-linejoin:miter;stroke-miterlimit:4;stroke-dasharray:none;stroke-opacity:1"
       d="m 138.67988,74.302226 c -27.47841,28.008994 -27.77735,55.514664 0,82.500404"
       id="path928"
       inkscape:connector-curvature="0"
       sodipodi:nodetypes="cc" />
    <path
       sodipodi:nodetypes="cc"
       inkscape:connector-curvature="0"
       id="path930"
       d="m 138.67988,74.302226 c 27.47841,28.008994 27.77735,55.514664 0,82.500404"
       style="fill:none;stroke:#000000;stroke-width:4;stroke-linecap:butt;stroke-linejoin:miter;stroke-miterlimit:4;stroke-dasharray:none;stroke-opacity:1" />
    <path
       style="fill:none;stroke:#000000;stroke-width:4;stroke-linecap:butt;stroke-linejoin:miter;stroke-miterlimit:4;stroke-dasharray:none;stroke-opacity:1"
       d="m 108.79503,87.44578 c 16.88875,8.845649 34.238,16.24976 59.14334,0"
       id="path932"
       inkscape:connector-curvature="0"
       sodipodi:nodetypes="cc" />
    <path
       sodipodi:nodetypes="cc"
       inkscape:connector-curvature="0"
       id="path934"
       d="m 109.06144,143.10129 c 16.88875,-8.84565 34.238,-16.24976 59.14334,0"
       style="fill:none;stroke:#000000;stroke-width:4;stroke-linecap:butt;stroke-linejoin:miter;stroke-miterlimit:4;stroke-dasharray:none;stroke-opacity:1" />
    <path
       style="fill:#000000;fill-opacity:1;stroke:#000000;stroke-width:1px;stroke-linecap:butt;stroke-linejoin:round;stroke-opacity:1"
       d="m 59.380376,131.18785 c 0.821425,5.62241 7.847071,4.03262 7.851236,4.03172 l -9.548801,12.16588 c -3.913969,0.0281 -4.704492,-1.82401 -4.102448,-5.02196 z"
       id="path936"
       inkscape:connector-curvature="0"
       sodipodi:nodetypes="ccccc" />
    <path
       style="fill:none;stroke:#000000;stroke-width:2;stroke-linecap:butt;stroke-linejoin:miter;stroke-miterlimit:4;stroke-dasharray:none;stroke-opacity:1"
       d="m 71.263328,181.76113 c -7.56897,-5.45494 -15.74705,-16.5894 -15.136617,-30.98056 -3.695174,0.0662 -5.260107,-3.49776 -6.224404,-6.43659 l 8.700018,-21.64395 c 2.969313,-3.94 7.675035,-5.26303 17.187842,3.18293 5.693713,-27.178044 6.755117,-39.504596 -4.173179,-65.21477 l 4.102448,-4.031716"
       id="path938"
       inkscape:connector-curvature="0"
       sodipodi:nodetypes="ccccccc" />
    <path
       sodipodi:nodetypes="ccccccc"
       inkscape:connector-curvature="0"
       id="path940"
       d="m 206.77398,181.69039 c 7.56897,-5.45494 15.74705,-16.5894 15.13661,-30.98056 3.69518,0.0662 5.26011,-3.49776 6.22441,-6.43659 l -8.70002,-21.64395 c -2.96931,-3.94 -7.67503,-5.26303 -17.18784,3.18293 -5.69371,-27.178036 -6.75512,-39.504588 4.17318,-65.214762 l -4.10245,-4.031716"
       style="fill:none;stroke:#000000;stroke-width:2;stroke-linecap:butt;stroke-linejoin:miter;stroke-miterlimit:4;stroke-dasharray:none;stroke-opacity:1" />
    <path
       style="fill:none;stroke:#000000;stroke-width:2;stroke-linecap:butt;stroke-linejoin:miter;stroke-miterlimit:4;stroke-dasharray:none;stroke-opacity:1"
       d="m 85.419837,46.158209 3.584562,-3.759419 h 98.166051 l 4.23351,4.464103"
       id="path942"
       inkscape:connector-curvature="0"
       sodipodi:nodetypes="cccc" />
    <path
       id="path944"
       style="fill:#000000;fill-opacity:1;stroke:#000000;stroke-width:0.968181px;stroke-linecap:butt;stroke-linejoin:miter;stroke-opacity:1"
       d="m 138.21944,9.7737981 -7.4935,8.9921879 -10.44842,-6.148438 V 21.22497 H 110.263 c 6.98286,4.829555 12.6411,10.701036 12.39274,21.214844 l 16.06717,-0.154297 z m 0.50347,32.5117189 16.06717,0.154297 C 154.54171,31.926006 160.19995,26.054525 167.18282,21.22497 H 157.1683 v -8.607422 l -10.44842,6.148438 -7.6363,-8.916016 z"
       inkscape:connector-curvature="0" />
    <path
       sodipodi:nodetypes="ccccc"
       inkscape:connector-curvature="0"
       id="path949"
       d="m 218.65025,131.11076 c -0.82142,5.62241 -7.84707,4.03262 -7.85124,4.03172 l 9.54881,12.16588 c 3.91396,0.0281 4.70449,-1.82401 4.10244,-5.02196 z"
       style="fill:#000000;fill-opacity:1;stroke:#000000;stroke-width:1px;stroke-linecap:butt;stroke-linejoin:round;stroke-opacity:1" />
    <path
       style="fill:none;stroke:#000000;stroke-width:2;stroke-linecap:butt;stroke-linejoin:miter;stroke-miterlimit:4;stroke-dasharray:none;stroke-opacity:1"
       d="m 80.476828,188.0102 c 21.025292,15.0038 33.422492,8.65055 58.209172,31.09006 20.88579,-21.06245 36.395,-17.3957 58.6595,-31.61447"
       id="path979"
       inkscape:connector-curvature="0"
       sodipodi:nodetypes="ccc" />
    <path
       sodipodi:nodetypes="cscc"
       inkscape:connector-curvature="0"
       id="path884"
       d="m 76.902004,62.174721 c 5.366459,14.59593 7.185491,26.329618 6.792619,37.949119 -0.799122,23.63461 -5.862517,24.81457 -5.839836,38.26474 0.685025,8.78362 4.603418,16.21132 12.299744,22.05472"
       style="fill:none;stroke:#000000;stroke-width:2;stroke-linecap:butt;stroke-linejoin:miter;stroke-miterlimit:4;stroke-dasharray:none;stroke-opacity:1" />
    <path
       sodipodi:nodetypes="ccc"
       inkscape:connector-curvature="0"
       id="path886"
       d="m 101.43636,167.14454 c 15.75892,6.76897 26.40048,8.63196 37.24964,18.91615 9.9054,-10.1123 21.37675,-12.52028 37.90603,-19.50994"
       style="fill:none;stroke:#000000;stroke-width:2;stroke-linecap:butt;stroke-linejoin:miter;stroke-miterlimit:4;stroke-dasharray:none;stroke-opacity:1" />
    <path
       style="fill:none;stroke:#000000;stroke-width:2;stroke-linecap:butt;stroke-linejoin:miter;stroke-miterlimit:4;stroke-dasharray:none;stroke-opacity:1"
       d="m 201.79073,62.045351 c -5.36646,14.59593 -8.77748,26.204511 -8.38461,37.824015 0.79912,23.634604 5.86252,24.814564 5.83984,38.264734 -0.68503,8.78362 -4.60342,16.21132 -12.29975,22.05472"
       id="path897"
       inkscape:connector-curvature="0"
       sodipodi:nodetypes="cscc" />
    <path
       sodipodi:nodetypes="ccccc"
       inkscape:connector-curvature="0"
       id="path899"
       d="m 82.138491,63.572215 -5.375707,-0.17737 -0.59165,-1.322077 2.531912,-2.784256 z"
       style="fill:#000000;fill-opacity:1;stroke:#000000;stroke-width:1px;stroke-linecap:butt;stroke-linejoin:miter;stroke-opacity:1" />
    <path
       style="fill:#000000;fill-opacity:1;stroke:#000000;stroke-width:1px;stroke-linecap:butt;stroke-linejoin:miter;stroke-opacity:1"
       d="m 196.31961,63.847899 5.3757,-0.17737 0.59165,-1.322077 -2.53191,-2.784256 z"
       id="path901"
       inkscape:connector-curvature="0"
       sodipodi:nodetypes="ccccc" />
    <path
       sodipodi:nodetypes="ccccccc"
       inkscape:connector-curvature="0"
       id="path905"
       d="m 88.239564,49.410517 2.375,-2.40625 h 95.999996 l 3.02344,2.820312 -12.11719,13.320313 h -76.5625 z"
       style="fill:#000000;fill-opacity:1;stroke:#000000;stroke-width:1px;stroke-linecap:butt;stroke-linejoin:miter;stroke-opacity:1" />
    <path
       sodipodi:nodetypes="ccc"
       inkscape:connector-curvature="0"
       id="path919"
       d="m 65.145576,158.90292 c 8.818149,19.46612 20.575946,24.14856 36.415994,30.4056 6.51915,2.23438 13.31089,5.95087 25.98618,12.72792"
       style="fill:none;stroke:#000000;stroke-width:1px;stroke-linecap:butt;stroke-linejoin:miter;stroke-opacity:0" />
    <path
       sodipodi:nodetypes="ccsccccccccccccccccccccc"
       inkscape:connector-curvature="0"
       id="path933"
       d="m 60.802064,128.51989 c 0.201006,1.00005 0.715739,1.55192 1.5,1.71875 1.702842,0.178 2.410509,-2.85435 4.030969,-2.9869 1.662808,-0.13601 4.247533,0.21588 3.77552,8.82226 -0.717725,3.05581 -10.172145,10.82105 -10.118989,14.53964 -1.462719,29.57413 40.669806,43.59344 51.409386,47.11428 12.09712,4.30261 23.08079,12.24544 27.28705,16.60447 4.10244,-4.33797 13.03637,-11.15759 20.30356,-14.65625 5.98511,-3.37244 56.49572,-12.15827 59.65625,-46.96875 0.0232,-5.27174 -5.93825,-9.68078 -10.625,-16.1875 -2.02212,-3.51287 -2.13175,-6.56684 -0.875,-7.98438 2.30844,-3.96946 4.83699,-2.77111 5.75912,-0.90758 0.4632,1.02469 -1.06416,4.35403 2.08463,4.73571 1.66541,-0.4949 2.45437,-4.65656 1.875,-6.6875 -1.34917,-2.28015 -2.28153,-2.56856 -3.55492,-2.82636 -3.19546,-0.32598 -6.47969,1.77452 -9.87408,7.70136 -1.10182,2.98595 -0.81377,5.52711 -0.88919,9.08617 -0.58064,20.68772 -24.04569,31.5689 -35.51484,35.3737 -12.74906,3.90314 -19.55111,8.55953 -28.34553,16.07138 -8.90918,-7.40648 -18.36201,-12.09473 -28.10269,-15.34375 -17.309069,-8.50912 -34.318261,-13.55773 -36.656246,-36.5625 -0.74363,-5.2078 0.107229,-3.73772 0.1875,-8.28125 -1.249533,-4.25983 -5.421919,-6.69294 -8.84375,-7.75 -3.223182,-0.27909 -4.928868,1.25298 -4.46875,5.375 z"
       style="fill:#000000;fill-opacity:1;stroke:#000000;stroke-width:1px;stroke-linecap:butt;stroke-linejoin:miter;stroke-opacity:1" />
    <path
       sodipodi:nodetypes="ccc"
       inkscape:connector-curvature="0"
       id="path935"
       d="m 147.39581,203.14489 c 8.19935,-6.26664 15.61322,-9.64986 27.4375,-13.5 13.74939,-5.97154 32.56948,-18.40547 40,-29.75"
       style="opacity:0;fill:none;stroke:#000000;stroke-width:1px;stroke-linecap:butt;stroke-linejoin:miter;stroke-opacity:1" />
  </g>
</svg>
