<?xml version="1.0" encoding="UTF-8" standalone="no"?>
<svg
   xmlns:dc="http://purl.org/dc/elements/1.1/"
   xmlns:cc="http://creativecommons.org/ns#"
   xmlns:rdf="http://www.w3.org/1999/02/22-rdf-syntax-ns#"
   xmlns:svg="http://www.w3.org/2000/svg"
   xmlns="http://www.w3.org/2000/svg"
   xmlns:sodipodi="http://sodipodi.sourceforge.net/DTD/sodipodi-0.dtd"
   xmlns:inkscape="http://www.inkscape.org/namespaces/inkscape"
   sodipodi:docname="upci-logo-icon-onlyl.svg"
   inkscape:version="1.0 (4035a4fb49, 2020-05-01)"
   id="svg8"
   version="1.1"
   viewBox="0 0 87.312502 87.312501"
   height="330"
   width="330">
  <defs
     id="defs2">
    <clipPath
       clipPathUnits="userSpaceOnUse"
       id="clipPath26">
      <path
         d="M 36,127.513 H 756 V 484.487 H 36 Z"
         id="path24" />
    </clipPath>
  </defs>
  <sodipodi:namedview
     inkscape:window-maximized="0"
     inkscape:window-y="1"
     inkscape:window-x="2967"
     inkscape:window-height="1198"
     inkscape:window-width="1375"
     units="px"
     fit-margin-bottom="19"
     fit-margin-right="19"
     fit-margin-left="19"
     fit-margin-top="19"
     showgrid="false"
     inkscape:document-rotation="0"
     inkscape:current-layer="g22"
     inkscape:document-units="mm"
     inkscape:cy="35.02652"
     inkscape:cx="265.02132"
     inkscape:zoom="1.4"
     inkscape:pageshadow="2"
     inkscape:pageopacity="0.0"
     borderopacity="1.0"
     bordercolor="#666666"
     pagecolor="#ffffff"
     id="base" />
  <metadata
     id="metadata5">
    <rdf:RDF>
      <cc:Work
         rdf:about="">
        <dc:format>image/svg+xml</dc:format>
        <dc:type
           rdf:resource="http://purl.org/dc/dcmitype/StillImage" />
        <dc:title></dc:title>
      </cc:Work>
    </rdf:RDF>
  </metadata>
  <g
     transform="translate(0.05213859,-0.03047887)"
     id="layer1"
     inkscape:groupmode="layer"
     inkscape:label="Layer 1">
    <g
       id="g18"
       inkscape:label="UPCIBrandingGuide_Revised_11-13-18"
       transform="matrix(0.35277777,0,0,-0.35277777,-72.968555,148.7232)">
      <g
         transform="translate(88.3413,-7.7496254)"
         clip-path="url(#clipPath26)"
         id="g22">
        <g
           transform="translate(282.2289,296.5739)"
           id="g180">
          <path
             id="path182"
             style="fill:#181818;fill-opacity:1;fill-rule:nonzero;stroke:none"
             d="m 0,0 c -0.214,-0.011 9.587,-1.282 13.743,-1.3 2.882,11.184 0.085,20.179 0.085,20.179 0,0 -5.09,4.202 -11.857,7.524 C 1.971,26.403 3.573,13.095 0,0" />
        </g>
        <g
           transform="translate(277.8909,326.0031)"
           id="g184">
          <path
             id="path186"
             style="fill:#24341b;fill-opacity:1;fill-rule:nonzero;stroke:none"
             d="m 0,0 c -5.65,3.834 -13.173,8.089 -22.44,11.497 0,0 -1.412,-19.518 -5.865,-34.606 11.218,-3.26 26.115,-5.259 26.115,-5.259 C 0.953,-17.204 0.926,-7.44 0,0" />
        </g>
        <g
           transform="translate(284.6144,327.8159)"
           id="g188">
          <path
             id="path190"
             style="fill:#24599d;fill-opacity:1;fill-rule:nonzero;stroke:none"
             d="M 0,0 C 0,0 7.685,-5.176 11.443,-8.402 8.682,5.809 -1.77,21.15 -14.298,29.065 -10.039,25.143 -2.479,12.609 0,0" />
        </g>
        <g
           transform="translate(248.6768,365.3123)"
           id="g192">
          <path
             id="path194"
             style="fill:#2b6b30;fill-opacity:1;fill-rule:nonzero;stroke:none"
             d="m 0,0 c 0.531,-2.177 0.904,-9.972 -0.249,-20.349 -8.533,3.198 -18.644,5.554 -30.215,5.889 8.631,7.71 20.264,14.399 23.781,15.351 C -3.393,0.655 0,0 0,0" />
        </g>
        <g
           transform="translate(240.2968,305.3241)"
           id="g196">
          <path
             id="path198"
             style="fill:#24599d;fill-opacity:1;fill-rule:nonzero;stroke:none"
             d="m 0,0 c 4.264,15.021 6.293,26.597 7.215,34.593 -8.912,3.31 -19.489,6.638 -31.571,7.123 C -31.348,35.812 -37.618,24.491 -40.462,13.124 -22.459,5.877 0,0 0,0" />
        </g>
        <g
           transform="translate(247.6335,296.5627)"
           id="g200">
          <path
             id="path202"
             style="fill:#29617c;fill-opacity:1;fill-rule:nonzero;stroke:none"
             d="m 0,0 c -3.44,-12.849 -7.289,-20.574 -10.616,-27.313 7.62,-2.088 23.525,-3.809 23.525,-3.809 4.757,6.292 11.001,16.789 14.07,26.322 C 27.01,-4.71 13.965,-3.384 0,0" />
        </g>
        <g
           transform="translate(198.151,312.9191)"
           id="g204">
          <path
             id="path206"
             style="fill:#1e214f;fill-opacity:1;fill-rule:nonzero;stroke:none"
             d="m 0,0 c -2.593,-12.144 -0.994,-21.275 0.964,-29.076 7.367,-4.669 19.828,-9.352 30.452,-12.11 3.269,6.747 7.249,18.314 9.369,27.256 C 17.006,-7.595 0,0 0,0" />
        </g>
        <g
           transform="translate(278.0948,331.337)"
           id="g208">
          <path
             id="path210"
             style="fill:#282844;fill-opacity:1;fill-rule:nonzero;stroke:none"
             d="m 0,0 c -1.644,13.043 -7.268,23.426 -11.527,27.35 0,0 -5.128,3.131 -11.927,5.259 0,0 2.403,-10.933 1.565,-21.388 C -12.759,7.891 -5.571,3.785 0,0" />
        </g>
        <g
           transform="translate(243.6432,246.6166)"
           id="g212">
          <path
             id="path214"
             style="fill:#24599d;fill-opacity:1;fill-rule:nonzero;stroke:none"
             d="M 0,0 C 10.793,0.979 24.953,7.228 33.007,14.474 27.559,14.078 20.56,13.983 20.56,13.983 16.937,10.665 8.376,2.906 0,0" />
        </g>
        <g
           transform="translate(257.7803,261.336)"
           id="g216">
          <path
             id="path218"
             style="fill:#14293a;fill-opacity:1;fill-rule:nonzero;stroke:none"
             d="m 0,0 c 0,0 -12.566,0.644 -22.763,2.855 -3.116,-6.356 -7.581,-14.08 -9.323,-16.294 0.383,-0.103 5.505,-1.338 13.182,-1.278 C -13.291,-13.059 -6.161,-6.324 0,0" />
        </g>
        <g
           transform="translate(199.1145,278.7427)"
           id="g220">
          <path
             id="path222"
             style="fill:#1d321b;fill-opacity:1;fill-rule:nonzero;stroke:none"
             d="m 0,0 c 2.152,-8.742 4.535,-17.652 8.323,-23.044 0,0 5.26,-4.021 12.197,-6.176 2.43,4.102 7.537,17.082 7.537,17.082 C 17.657,-9.346 5.791,-4.251 0,0" />
        </g>
        <g
           transform="translate(238.7144,366.6964)"
           id="g224">
          <path
             id="path226"
             style="fill:#1e4262;fill-opacity:1;fill-rule:nonzero;stroke:none"
             d="m 0,0 c -13.644,0.242 -30.403,-5.788 -40.247,-15.672 0,0 7.72,1.119 13.662,0.733 C -17.623,-7.279 -5.439,-1.623 0,0" />
        </g>
        <g
           transform="translate(294.8618,290.585)"
           id="g228">
          <path
             id="path230"
             style="fill:#2c2857;fill-opacity:1;fill-rule:nonzero;stroke:none"
             d="m 0,0 c 0,0 -7.745,0.38 -14.053,0.645 -0.024,-0.092 -5.217,-15.081 -14.461,-26.728 0,0 8.958,-0.691 12.905,-0.311 C -3.175,-14.305 -0.038,-0.17 0,0" />
        </g>
        <g
           transform="translate(210.0602,348.4908)"
           id="g232">
          <path
             id="path234"
             style="fill:#29617c;fill-opacity:1;fill-rule:nonzero;stroke:none"
             d="m 0,0 c -4.184,0.089 -9.656,0.066 -14.19,-0.383 -3.972,-3.705 -11.091,-14.23 -13.804,-22.306 4.851,-2.223 12.16,-5.191 12.16,-5.191 C -13.207,-16.462 -6.878,-6.034 0,0" />
        </g>
        <g
           transform="translate(193.0185,281.191)"
           id="g236">
          <path
             id="path238"
             style="fill:#24599d;fill-opacity:1;fill-rule:nonzero;stroke:none"
             d="M 0,0 C 0,0 -7.334,4.503 -13.345,9.842 -10.121,-1.156 0.226,-17.055 11.468,-24.708 5.777,-17.28 2.152,-8.74 0,0" />
        </g>
        <g
           transform="translate(193.0185,315.056)"
           id="g240">
          <path
             id="path242"
             style="fill:#222628;fill-opacity:1;fill-rule:nonzero;stroke:none"
             d="m 0,0 c 0,0 -6.398,2.884 -13.029,6.14 0,0 -3.66,-10.77 -0.386,-25.738 5.41,-4.425 13.116,-8.55 13.116,-8.55 C -2.037,-18.259 -2.142,-10.698 0,0" />
        </g>
        <g
           transform="translate(180.0289,335.9781)"
           id="g244">
          <path
             id="path246"
             style="fill:#24599d;fill-opacity:1;fill-rule:nonzero;stroke:none"
             d="m 0,0 c 0,0 0.599,1.444 1.958,4.055 1.412,2.558 3.518,6.38 7.039,10.67 3.477,4.295 8.312,9.148 14.861,13.407 6.501,4.284 14.701,8.027 24.237,9.888 4.755,0.945 9.821,1.448 15.082,1.378 5.26,-0.088 10.696,-0.856 16.141,-2.261 5.445,-1.413 10.858,-3.617 16.048,-6.515 1.405,-0.835 2.45,-1.441 3.752,-2.292 1.265,-0.866 2.575,-1.733 3.744,-2.673 2.44,-1.808 4.703,-3.886 6.925,-6.037 8.723,-8.758 15.415,-20.258 18.373,-32.974 3.04,-12.673 2.529,-26.42 -1.7,-39.021 -1.078,-3.137 -2.337,-6.219 -3.862,-9.162 -1.476,-2.968 -3.209,-5.82 -5.044,-8.454 l -1.48,-2.077 -1.534,-1.943 c -1.005,-1.307 -2.139,-2.505 -3.224,-3.737 -2.258,-2.39 -4.647,-4.64 -7.177,-6.699 -10.128,-8.272 -22.417,-13.232 -34.607,-15.019 -12.232,-1.77 -24.43,-0.167 -34.895,3.942 -5.223,2.035 -10.128,4.644 -14.365,7.632 -4.385,3.082 -8.111,6.491 -11.369,10.127 -6.494,7.272 -10.661,15.292 -13.147,22.667 -2.521,7.395 -3.359,14.176 -3.542,19.697 -0.179,5.54 0.391,9.855 0.852,12.754 0.238,1.451 0.453,2.556 0.622,3.295 0.157,0.741 0.237,1.124 0.237,1.124 0,0 -0.041,-0.39 -0.122,-1.142 -0.094,-0.75 -0.196,-1.869 -0.286,-3.327 -0.189,-2.915 -0.232,-7.21 0.357,-12.584 0.626,-5.362 2.031,-11.81 4.877,-18.686 2.866,-6.851 7.316,-14.079 13.655,-20.509 3.17,-3.183 6.873,-6.194 10.902,-8.711 4.166,-2.617 8.621,-4.8 13.475,-6.469 9.663,-3.362 20.68,-4.298 31.619,-2.525 5.454,0.962 10.901,2.543 16.064,4.928 2.596,1.157 5.108,2.533 7.536,4.055 2.46,1.472 4.766,3.208 7.019,5.013 2.226,1.84 4.321,3.849 6.302,5.973 0.947,1.101 1.947,2.162 2.823,3.327 l 1.342,1.722 1.213,1.732 c 1.702,2.483 3.192,4.987 4.474,7.619 1.332,2.606 2.408,5.339 3.349,8.107 3.819,11.077 4.377,23.251 1.766,34.519 -0.669,2.81 -1.453,5.588 -2.486,8.263 -0.991,2.687 -2.14,5.307 -3.494,7.8 -2.634,5.029 -6.008,9.571 -9.787,13.599 -1.942,1.963 -3.917,3.876 -6.067,5.544 -1.051,0.894 -2.126,1.613 -3.178,2.405 -1.047,0.755 -2.423,1.631 -3.413,2.278 -4.549,2.772 -9.35,4.962 -14.248,6.437 -9.8,2.966 -19.765,3.453 -28.71,2.158 C 39.945,32 31.989,29.044 25.517,25.405 19.034,21.756 13.966,17.524 10.239,13.626 6.501,9.724 3.994,6.247 2.348,3.824 0.744,1.38 0,0 0,0" />
        </g>
      </g>
      <g
         id="g252"
         transform="translate(508.32,219.28)" />
    </g>
  </g>
</svg>
