<?xml version="1.0" encoding="UTF-8" standalone="no"?>
<svg
   xmlns:dc="http://purl.org/dc/elements/1.1/"
   xmlns:cc="http://creativecommons.org/ns#"
   xmlns:rdf="http://www.w3.org/1999/02/22-rdf-syntax-ns#"
   xmlns:svg="http://www.w3.org/2000/svg"
   xmlns="http://www.w3.org/2000/svg"
   id="svg8"
   version="1.1"
   viewBox="0 0 243.41666 3.1750001"
   height="12"
   width="920">
  <defs
     id="defs2" />
  <metadata
     id="metadata5">
    <rdf:RDF>
      <cc:Work
         rdf:about="">
        <dc:format>image/svg+xml</dc:format>
        <dc:type
           rdf:resource="http://purl.org/dc/dcmitype/StillImage" />
        <dc:title></dc:title>
      </cc:Work>
    </rdf:RDF>
  </metadata>
  <g
     transform="translate(0,-6.8791662)"
     id="layer1">
    <circle
       r="1.5875"
       cy="8.4666662"
       cx="121.70834"
       id="path16"
       style="opacity:1;fill:#c2b560;fill-opacity:1;stroke-width:0.0992188" />
    <circle
       r="0.79374999"
       cy="8.4666662"
       cx="118.79791"
       id="path841"
       style="opacity:1;fill:#c2b560;fill-opacity:1;stroke-width:0.15875" />
    <circle
       r="0.79374999"
       style="opacity:1;fill:#c2b560;fill-opacity:1;stroke-width:0.15875"
       id="path841-4"
       cx="124.61877"
       cy="8.4666662" />
    <path
       id="path858"
       d="M 63.5,8.4666664 H 182.03333"
       style="fill:#c2b560;fill-opacity:1;stroke:#c2b560;stroke-width:0.264583;stroke-linecap:butt;stroke-linejoin:miter;stroke-miterlimit:4;stroke-dasharray:none;stroke-opacity:1" />
    <path
       id="path862"
       d="m 179.91666,8.4666666 h 63.5"
       style="fill:none;stroke:#c2b560;stroke-width:0.529167;stroke-linecap:butt;stroke-linejoin:miter;stroke-miterlimit:4;stroke-dasharray:none;stroke-opacity:1" />
    <path
       style="fill:none;stroke:#c2b560;stroke-width:0.529167;stroke-linecap:butt;stroke-linejoin:miter;stroke-miterlimit:4;stroke-dasharray:none;stroke-opacity:1"
       d="M 0,8.4666663 H 63.5"
       id="path862-3" />
    <path
       style="fill:#c2b560;fill-opacity:1;stroke:none;stroke-width:0.218745px;stroke-linecap:butt;stroke-linejoin:miter;stroke-opacity:1"
       d="m 117.47337,8.4703143 c 0,-0.3014193 0.0851,-0.6028389 -0.63499,-0.7535488 C 115.63078,7.4954105 55.879876,8.168895 50.8,8.4703143 c 5.079876,0.3014198 64.81314,0.9505165 66.03838,0.7535492 0.76963,-0.1507098 0.63499,-0.4521294 0.63499,-0.7535492 z"
       id="path860-6" />
    <path
       id="path860-6-2"
       d="m 125.95069,8.4703143 c 0,-0.3014193 -0.0851,-0.6028389 0.63499,-0.7535488 1.20761,-0.221355 60.95851,0.4521295 66.03839,0.7535488 -5.07988,0.3014198 -64.81314,0.9505165 -66.03839,0.7535493 -0.76963,-0.1507099 -0.63499,-0.4521295 -0.63499,-0.7535493 z"
       style="fill:#c2b560;fill-opacity:1;stroke:none;stroke-width:0.218745px;stroke-linecap:butt;stroke-linejoin:miter;stroke-opacity:1" />
  </g>
</svg>
